<svg width="50" height="50" viewBox="0 0 50 50" fill="none" xmlns="http://www.w3.org/2000/svg">
<path fill-rule="evenodd" clip-rule="evenodd" d="M15.3835 40.1168C23.0653 45.5107 33.8703 43.3275 39.5171 35.2406C45.1639 27.1536 43.5142 16.2253 35.8323 10.8314C28.1505 5.43758 17.3456 7.62075 11.6988 15.7077C6.05197 23.7946 7.70168 34.7229 15.3835 40.1168Z" fill="#A869C1"/>
<path fill-rule="evenodd" clip-rule="evenodd" d="M13.9274 39.1451C21.3897 44.3848 32.0168 42.0767 37.6636 33.9898C43.3104 25.9029 41.8386 15.0995 34.3762 9.8597C26.9139 4.61996 16.2868 6.92806 10.64 15.015C4.99326 23.1019 6.46504 33.9053 13.9274 39.1451Z" fill="url(#paint0_linear_7_1438)"/>
<path fill-rule="evenodd" clip-rule="evenodd" d="M20.5377 16.2266L29.2609 17.0606L33.0259 24.9953L32.0343 26.4155L19.5461 17.6468L20.5377 16.2266ZM28.5645 24.9372L25.0937 29.9078L27.175 31.3693L30.6458 26.3986L28.5645 24.9372ZM24.3256 22.3942L20.8548 27.3648L22.9361 28.8262L26.4069 23.8556L24.3256 22.3942ZM20.0866 19.8523L16.6158 24.8229L18.6971 26.2843L22.1679 21.3137L20.0866 19.8523ZM26.1056 35.3941L13.6174 26.6254L15.1049 24.4951L27.5931 33.2638L26.1056 35.3941Z" fill="white"/>
<defs>
<linearGradient id="paint0_linear_7_1438" x1="43.088" y1="2.90076" x2="3.70489" y2="7.7138" gradientUnits="userSpaceOnUse">
<stop stop-color="#FFBBCF"/>
<stop offset="1" stop-color="#A665D1"/>
</linearGradient>
</defs>
</svg>
