<svg width="37" height="38" viewBox="0 0 37 38" fill="none" xmlns="http://www.w3.org/2000/svg">
<path fill-rule="evenodd" clip-rule="evenodd" d="M18.5585 37.6018C28.6266 37.6018 36.7884 29.2044 36.7884 18.8458C36.7884 8.48717 28.6266 0.0898285 18.5585 0.0898285C8.49041 0.0898285 0.328613 8.48717 0.328613 18.8458C0.328613 29.2044 8.49041 37.6018 18.5585 37.6018Z" fill="url(#paint0_linear_7_1451)"/>
<path fill-rule="evenodd" clip-rule="evenodd" d="M28.1501 13.0716C28.5 13.4192 28.5 13.983 28.1501 14.3305C25.8278 16.6375 17.7984 24.6141 15.4764 26.9208C15.3084 27.0877 15.0804 27.1817 14.8427 27.1817C14.6049 27.1817 14.3769 27.0877 14.2089 26.9208C12.777 25.4983 9.3042 22.0484 7.87205 20.6259C7.52218 20.2781 7.52218 19.7143 7.87205 19.3667C8.25919 18.9824 8.75244 18.4921 9.13959 18.1075C9.48945 17.76 10.057 17.76 10.4068 18.1078C11.7667 19.4588 14.8427 22.5144 14.8427 22.5144C14.8427 22.5144 23.2185 14.1935 25.6153 11.8127C25.7834 11.6458 26.0114 11.552 26.2491 11.5517C26.4868 11.5517 26.7148 11.6458 26.8829 11.8127L28.1501 13.0716Z" fill="white"/>
<defs>
<linearGradient id="paint0_linear_7_1451" x1="17.4475" y1="-5.96588" x2="-5.08962" y2="20.4826" gradientUnits="userSpaceOnUse">
<stop stop-color="#479955"/>
<stop offset="1" stop-color="#2DC897"/>
</linearGradient>
</defs>
</svg>
