<svg width="50" height="50" viewBox="0 0 50 50" fill="none" xmlns="http://www.w3.org/2000/svg">
<path fill-rule="evenodd" clip-rule="evenodd" d="M10.4539 14.1128C4.68041 21.5231 6.28904 32.4576 14.0469 38.5356C21.8048 44.6136 32.7742 43.5335 38.5477 36.1232C44.3212 28.7128 42.7126 17.7783 34.9547 11.7003C27.1968 5.62229 16.2275 6.70238 10.4539 14.1128Z" fill="#525ED0"/>
<path fill-rule="evenodd" clip-rule="evenodd" d="M11.4274 13.1416C5.98379 20.1286 7.85987 30.7198 15.6177 36.7978C23.3756 42.8758 34.0775 42.139 39.5212 35.152C44.9648 28.1651 43.0887 17.5739 35.3308 11.4959C27.5729 5.41788 16.871 6.15471 11.4274 13.1416Z" fill="url(#paint0_linear_7_1447)"/>
<path d="M22.1495 31.94L21.3417 30.1934L21.8654 29.6324C21.6205 29.4318 21.39 29.2308 21.1739 29.0295C20.8825 28.7579 20.6227 28.4928 20.3944 28.2341L19.3609 29.3415L18.5531 27.5949L19.3317 26.7607C17.5753 23.6701 17.9695 20.7615 20.5142 18.0348C21.3502 17.139 22.2605 16.3952 23.2449 15.8034L24.8879 17.3345C23.8439 17.7787 22.9246 18.4266 22.1299 19.2781C20.6049 20.9121 20.3703 22.6582 21.4263 24.5163L25.9668 19.6511L26.7746 21.3976L22.4339 26.0488C22.5717 26.2232 22.7763 26.4368 23.0476 26.6897C23.3591 26.9799 23.6471 27.23 23.9117 27.4397L27.6944 23.3866L28.5091 25.1257L25.4774 28.3741C26.708 28.8674 27.7346 29.0281 28.5574 28.8562C29.3801 28.6842 30.2256 28.1331 31.0937 27.2029C31.7139 26.5385 32.2329 25.6602 32.6509 24.5681L34.1959 26.0079C33.7745 27.0231 33.0792 28.05 32.11 29.0885C29.5606 31.8201 26.647 32.335 23.3691 30.6332L22.1495 31.94Z" fill="white"/>
<defs>
<linearGradient id="paint0_linear_7_1447" x1="50.0289" y1="45.0028" x2="41.6121" y2="1.24793" gradientUnits="userSpaceOnUse">
<stop stop-color="#82C3FB"/>
<stop offset="1" stop-color="#626BE6"/>
</linearGradient>
</defs>
</svg>
