<svg width="26" height="26" viewBox="0 0 26 26" fill="none" xmlns="http://www.w3.org/2000/svg">
<path d="M19.6532 15.0219C20.054 14.0399 20.2786 12.9672 20.2786 11.8408C20.2786 7.18101 16.5006 3.40298 11.8408 3.40298C7.18104 3.40298 3.40302 7.18101 3.40302 11.8408C3.40302 16.5006 7.18104 20.2786 11.8408 20.2786C12.9673 20.2786 14.041 20.0539 15.024 19.6532" stroke="#6B75FF" stroke-width="1.18657" stroke-linecap="round" stroke-linejoin="round"/>
<path d="M19.2239 15.005C21.5538 15.005 23.4428 16.894 23.4428 19.2239C23.4428 21.5538 21.5538 23.4428 19.2239 23.4428C16.894 23.4428 15.005 21.5538 15.005 19.2239C15.005 16.894 16.894 15.005 19.2239 15.005" stroke="#6B75FF" stroke-width="1.18657" stroke-linecap="round" stroke-linejoin="round"/>
<path d="M17.8317 19.362H20.6583" stroke="#6B75FF" stroke-width="1.18657" stroke-linecap="round" stroke-linejoin="round"/>
<path d="M12.9375 13.275C13.7232 13.275 14.4767 12.9629 15.0323 12.4073C15.5879 11.8517 15.9 11.0982 15.9 10.3125C15.9 9.5268 15.5879 8.77327 15.0323 8.2177C14.4767 7.66212 13.7232 7.35 12.9375 7.35H10.125C9.98576 7.35 9.85223 7.40531 9.75377 7.50377C9.65531 7.60223 9.6 7.73576 9.6 7.875V12.225H8.625C8.48576 12.225 8.35223 12.2803 8.25377 12.3788C8.15531 12.4772 8.1 12.6108 8.1 12.75C8.1 12.8892 8.15531 13.0228 8.25377 13.1212C8.35223 13.2197 8.48576 13.275 8.625 13.275H9.6V13.725H8.625C8.48576 13.725 8.35223 13.7803 8.25377 13.8788C8.15531 13.9772 8.1 14.1108 8.1 14.25C8.1 14.3892 8.15531 14.5228 8.25377 14.6212C8.35223 14.7197 8.48576 14.775 8.625 14.775H9.6V16.125C9.6 16.2642 9.65531 16.3978 9.75377 16.4962C9.85223 16.5947 9.98576 16.65 10.125 16.65C10.2642 16.65 10.3978 16.5947 10.4962 16.4962C10.5947 16.3978 10.65 16.2642 10.65 16.125V14.775H12.75C12.8892 14.775 13.0228 14.7197 13.1212 14.6212C13.2197 14.5228 13.275 14.3892 13.275 14.25C13.275 14.1108 13.2197 13.9772 13.1212 13.8788C13.0228 13.7803 12.8892 13.725 12.75 13.725H10.65V13.275H12.9375ZM10.65 8.4H12.9375C13.4447 8.4 13.9312 8.6015 14.2898 8.96016C14.6485 9.31882 14.85 9.80527 14.85 10.3125C14.85 10.8197 14.6485 11.3062 14.2898 11.6648C13.9312 12.0235 13.4447 12.225 12.9375 12.225H10.65V8.4Z" fill="#6B75FF" stroke="#6B75FF" stroke-width="0.3"/>
<path d="M19.2439 20.7754V17.9487" stroke="#6B75FF" stroke-width="1.18657" stroke-linecap="round" stroke-linejoin="round"/>
</svg>
