<svg width="18" height="15" viewBox="0 0 18 15" fill="none" xmlns="http://www.w3.org/2000/svg">
<path d="M8.98664 0C10.8453 0 12.6076 0.64486 14.1419 1.83872C15.6762 3.02387 16.9826 4.75802 17.9207 6.92789C17.9908 7.09346 17.9908 7.28517 17.9207 7.44203C16.0444 11.7818 12.704 14.3786 8.98664 14.3786H8.97788C5.26924 14.3786 1.92884 11.7818 0.0526047 7.44203C-0.0175349 7.28517 -0.0175349 7.09346 0.0526047 6.92789C1.92884 2.58815 5.26924 0 8.97788 0H8.98664ZM8.98664 3.70359C7.04904 3.70359 5.47966 5.26345 5.47966 7.18932C5.47966 9.10647 7.04904 10.6663 8.98664 10.6663C10.9155 10.6663 12.4849 9.10647 12.4849 7.18932C12.4849 5.26345 10.9155 3.70359 8.98664 3.70359ZM8.9877 5.00882C10.1888 5.00882 11.1708 5.98482 11.1708 7.1874C11.1708 8.38126 10.1888 9.35726 8.9877 9.35726C7.77779 9.35726 6.79583 8.38126 6.79583 7.1874C6.79583 7.03926 6.81337 6.89983 6.83967 6.7604H6.88351C7.8567 6.7604 8.64577 5.99354 8.68084 5.03496C8.77728 5.01753 8.88249 5.00882 8.9877 5.00882Z" fill="#FCD97E"/>
</svg>
