<svg width="28" height="28" viewBox="0 0 28 28" fill="none" xmlns="http://www.w3.org/2000/svg">
<path fill-rule="evenodd" clip-rule="evenodd" d="M19.4381 20.56V13.7428C19.4382 13.1401 19.1989 12.562 18.7727 12.1358C18.3465 11.7097 17.7684 11.4703 17.1657 11.4705H5.80381C5.20109 11.4703 4.623 11.7097 4.19681 12.1358C3.77062 12.562 3.53127 13.1401 3.53143 13.7428V20.56C3.53127 21.1627 3.77062 21.7408 4.19681 22.167C4.623 22.5931 5.20109 22.8325 5.80381 22.8323H17.1657C18.4207 22.8323 19.4381 21.8149 19.4381 20.56Z" stroke="#4CA6A8" stroke-width="1.51429" stroke-linecap="round" stroke-linejoin="round"/>
<path d="M3.53143 16.105H19.4381" stroke="#4CA6A8" stroke-width="1.51429" stroke-linecap="round" stroke-linejoin="round"/>
<path d="M7.16724 11.4705L8.54202 6.33491C8.698 5.75288 9.07918 5.25685 9.60144 4.95629C10.1237 4.65573 10.7441 4.57535 11.3257 4.73288L22.3013 7.67561C22.8833 7.83159 23.3793 8.21277 23.6799 8.73502C23.9804 9.25727 24.0608 9.87766 23.9033 10.4593L22.1422 17.0378C21.8288 18.2218 20.6306 18.9417 19.4381 18.6625" stroke="#4CA6A8" stroke-width="1.51429" stroke-linecap="round" stroke-linejoin="round"/>
</svg>
