<svg width="28" height="28" viewBox="0 0 28 28" fill="none" xmlns="http://www.w3.org/2000/svg">
<path fill-rule="evenodd" clip-rule="evenodd" d="M19.4381 21.06V14.2429C19.4383 13.6401 19.1989 13.0621 18.7727 12.6359C18.3465 12.2097 17.7684 11.9703 17.1657 11.9705H5.80384C5.20112 11.9703 4.62303 12.2097 4.19684 12.6359C3.77065 13.0621 3.5313 13.6401 3.53146 14.2429V21.06C3.5313 21.6627 3.77065 22.2408 4.19684 22.667C4.62303 23.0932 5.20112 23.3325 5.80384 23.3324H17.1657C18.4207 23.3324 19.4381 22.315 19.4381 21.06Z" stroke="#4CA6A8" stroke-width="1.51429" stroke-linecap="round" stroke-linejoin="round"/>
<path d="M3.53146 16.605H19.4381" stroke="#4CA6A8" stroke-width="1.51429" stroke-linecap="round" stroke-linejoin="round"/>
<path d="M7.16727 11.9705L8.54205 6.83494C8.69804 6.25291 9.07921 5.75688 9.60147 5.45632C10.1237 5.15576 10.7441 5.07538 11.3257 5.23291L22.3013 8.17564C22.8833 8.33162 23.3793 8.7128 23.6799 9.23505C23.9805 9.7573 24.0608 10.3777 23.9033 10.9593L22.1422 17.5378C21.8288 18.7218 20.6306 19.4417 19.4381 19.1626" stroke="#4CA6A8" stroke-width="1.51429" stroke-linecap="round" stroke-linejoin="round"/>
</svg>
